<svg xmlns="http://www.w3.org/2000/svg" xmlns:xlink="http://www.w3.org/1999/xlink" width="221.555" height="46.173" viewBox="0 0 221.555 46.173">
  <defs>
    <clipPath id="clip-path">
      <rect id="Rectangle_4826" data-name="Rectangle 4826" width="221.555" height="46.173" fill="#fff"/>
    </clipPath>
  </defs>
  <g id="Group_5343" data-name="Group 5343" transform="translate(0 0)">
    <g id="Group_5340" data-name="Group 5340" transform="translate(0 0)">
      <g id="Group_5339" data-name="Group 5339" clip-path="url(#clip-path)">
        <path id="Path_223216" data-name="Path 223216" d="M4.746,0H41.133A4.759,4.759,0,0,1,45.88,4.746V15.481l-4.534-1.889V4.745a.212.212,0,0,0-.212-.211H4.746a.211.211,0,0,0-.211.211V41.4a.211.211,0,0,0,.211.211H7.5a14.107,14.107,0,0,0,5.3,4.535H4.746A4.76,4.76,0,0,1,0,41.4V4.746A4.76,4.76,0,0,1,4.746,0M29.47,6.366V17.529q.785-.354,1.575-.7a59.837,59.837,0,0,1,5.88-2.295V11.75l2.316.965V6.366Zm-13.058,26.6c-2.175,1.7-3.928,3.667-4.039,5.659a3.493,3.493,0,0,0,.133,1.154h3.906ZM27.826,26.8c-1.722.7-3.22,1.358-4.129,1.8a47,47,0,0,0-5.642,3.185v8h9.771ZM39.24,25.38l-2.316,2.081V23.747a53.536,53.536,0,0,0-7.455,2.4V39.778H39.24ZM6.641,17.1V35.574c1.183-4.238,5.689-8.083,9.77-10.862V17.1Zm11.414-3.965v10.5c.888-.565,1.727-1.068,2.474-1.5,2.363-1.38,4.81-2.659,7.3-3.836V13.136ZM45.88,19.413l-4.534,4.075V41.4a.212.212,0,0,1-.212.211H13.511a14.856,14.856,0,0,0,4,3.162L20,46.144H41.133A4.759,4.759,0,0,0,45.88,41.4Z" transform="translate(0 0)" fill="#fff" fill-rule="evenodd"/>
        <path id="Path_223217" data-name="Path 223217" d="M394.57,54.193h1.185v1.252a2.516,2.516,0,0,1,1-1.083,2.888,2.888,0,0,1,1.473-.373,3.867,3.867,0,0,1,1.87.482,3.6,3.6,0,0,1,1.38,1.278,3.386,3.386,0,0,1,2.961-1.726,3.96,3.96,0,0,1,2.7,1.041,3.328,3.328,0,0,1,1.178,2.6v5.789H407.1V57.867a2.485,2.485,0,0,0-.771-1.947,2.674,2.674,0,0,0-1.853-.694,2.443,2.443,0,0,0-1.667.618,2.168,2.168,0,0,0-.7,1.718v5.891h-1.287V57.764a2.339,2.339,0,0,0-.778-1.861,2.765,2.765,0,0,0-1.879-.677,2.324,2.324,0,0,0-1.651.644,2.43,2.43,0,0,0-.685,1.861v5.722H394.57Z" transform="translate(-186.76 -25.555)" fill="#fff"/>
        <path id="Path_223218" data-name="Path 223218" d="M372.939,58.661a4.7,4.7,0,0,1,.668-2.327,4.771,4.771,0,0,1,1.795-1.711,4.961,4.961,0,0,1,2.531-.634,4.147,4.147,0,0,1,1.583.339A5.225,5.225,0,0,1,381,55.25a5.286,5.286,0,0,1,1.118,1.414,4.014,4.014,0,0,1,.508,1.726,4.767,4.767,0,0,1-.551,2.632,4.912,4.912,0,0,1-1.8,1.93,4.721,4.721,0,0,1-2.505.7,4.946,4.946,0,0,1-2.327-.6,4.582,4.582,0,0,1-1.829-1.752,4.954,4.954,0,0,1-.668-2.641m1.219.068a3.5,3.5,0,0,0,1.066,2.665,3.952,3.952,0,0,0,2.573,1.092,3.414,3.414,0,0,0,1.642-.44,3.677,3.677,0,0,0,1.9-3.317,3.356,3.356,0,0,0-.491-1.719,3.749,3.749,0,0,0-1.32-1.337,3.173,3.173,0,0,0-1.726-.482,3.737,3.737,0,0,0-2.531,1.049,3.323,3.323,0,0,0-1.108,2.489" transform="translate(-176.521 -25.554)" fill="#fff"/>
        <path id="Path_223219" data-name="Path 223219" d="M352.116,58.764a4.712,4.712,0,0,1,.71-2.54,4.832,4.832,0,0,1,1.76-1.667,5.142,5.142,0,0,1,2.285-.635,5.418,5.418,0,0,1,2.852.693,4.4,4.4,0,0,1,1.971,2.319h-1.421a3.746,3.746,0,0,0-.89-1.015A3.469,3.469,0,0,0,358.2,55.3a3.648,3.648,0,0,0-1.329-.144,3.549,3.549,0,0,0-2.522,1.159,3.7,3.7,0,0,0-.982,2.447,3.455,3.455,0,0,0,1.016,2.548,3.681,3.681,0,0,0,2.624,1.109,3.824,3.824,0,0,0,1.93-.474,3.662,3.662,0,0,0,1.371-1.236H361.7A5.072,5.072,0,0,1,354.679,63a5.1,5.1,0,0,1-1.861-1.71,4.475,4.475,0,0,1-.736-2.463c.022-.022.034-.039.034-.051Z" transform="translate(-166.65 -25.522)" fill="#fff"/>
        <rect id="Rectangle_4825" data-name="Rectangle 4825" width="1.354" height="2.286" transform="translate(181.776 35.612)" fill="#fff"/>
        <path id="Path_223220" data-name="Path 223220" d="M105.5,36.106a11.824,11.824,0,0,0,1.18,5.626,9.777,9.777,0,0,0,8.928,5.478,9.033,9.033,0,0,0,3.966-1,7.835,7.835,0,0,0,3.081-2.472v2.8h4.464V26.071h-4.464v2.878a5.916,5.916,0,0,0-2.749-2.509,9.542,9.542,0,0,0-4.224-.922,10.6,10.6,0,0,0-4.8,1.162,9.327,9.327,0,0,0-3.8,3.56,11.719,11.719,0,0,0-1.586,5.866m11.1,6.345a6.422,6.422,0,0,1-4.279-1.641A5.506,5.506,0,0,1,110.41,36.4a5.839,5.839,0,0,1,1.771-4.446,5.994,5.994,0,0,1,4.28-1.679A6.107,6.107,0,0,1,120.74,31.9a5.707,5.707,0,0,1,1.771,4.427,6.034,6.034,0,0,1-1.642,4.317,5.839,5.839,0,0,1-4.261,1.807m32.908-13.687a9.267,9.267,0,0,0-3.3-2.491,9.945,9.945,0,0,0-4.187-.9,8.31,8.31,0,0,0-6.383,2.877v-9h-4.906v27.3h4.538V43.669q2.066,3.467,6.825,3.468A9.529,9.529,0,0,0,149.35,44a10.631,10.631,0,0,0,2.933-7.526,11.324,11.324,0,0,0-2.767-7.711M136.862,40.349a6.113,6.113,0,0,1-1.586-3.947,6.636,6.636,0,0,1,1.863-4.427,5.863,5.863,0,0,1,8.485-.055,5.88,5.88,0,0,1,1.752,4.261,6.5,6.5,0,0,1-.756,3.136,6.017,6.017,0,0,1-5.147,3.136,6.224,6.224,0,0,1-4.612-2.1m18.225,6.2h4.907v-27.3h-4.907Zm8.854,0h4.908V35.368q0-2.876,1.033-3.928a5.439,5.439,0,0,1,3.358-1.31V25.371a5.017,5.017,0,0,0-4.833,2.582V26.071h-4.465Zm10.921-10.44a11.824,11.824,0,0,0,1.18,5.626,9.777,9.777,0,0,0,8.928,5.478,9.029,9.029,0,0,0,3.965-1,7.835,7.835,0,0,0,3.081-2.472v2.8h4.464V26.071h-4.464v2.878a5.913,5.913,0,0,0-2.748-2.509,9.544,9.544,0,0,0-4.224-.922,10.6,10.6,0,0,0-4.8,1.162,9.327,9.327,0,0,0-3.8,3.56,11.714,11.714,0,0,0-1.586,5.866m11.1,6.345a6.422,6.422,0,0,1-4.279-1.641,5.506,5.506,0,0,1-1.919-4.409,5.839,5.839,0,0,1,1.772-4.446,6,6,0,0,1,4.28-1.679A6.108,6.108,0,0,1,190.1,31.9a5.707,5.707,0,0,1,1.771,4.427,6.034,6.034,0,0,1-1.642,4.317,5.842,5.842,0,0,1-4.261,1.807M200.8,26.071h-2.361v4.317H200.8V46.547h4.98L205.7,30.388h3.025V26.071H205.7l.074-6.825H200.8Zm9.519,10.035a4.869,4.869,0,0,1-.074.922,9.9,9.9,0,0,0,3.3,7.1,10.834,10.834,0,0,0,13.724,1.162,9.906,9.906,0,0,0,3.6-4.648h-5.423a6.327,6.327,0,0,1-4.39,1.807,6.612,6.612,0,0,1-3.542-1.124,4.7,4.7,0,0,1-1.992-2.86h15.864a16.341,16.341,0,0,0,.184-2.287,10.4,10.4,0,0,0-1.513-5.607,10.665,10.665,0,0,0-3.947-3.781,10.437,10.437,0,0,0-5.128-1.347,9.871,9.871,0,0,0-5.792,1.7,11.382,11.382,0,0,0-4.869,8.965m10.736-5.9A5.581,5.581,0,0,1,224.7,31.44a5.913,5.913,0,0,1,1.993,2.711H215.444a6.008,6.008,0,0,1,1.936-2.73,5.705,5.705,0,0,1,3.671-1.217" transform="translate(-49.935 -9.11)" fill="#fff"/>
      </g>
    </g>
    <path id="Path_223221" data-name="Path 223221" d="M45.7,28.511c-6.3,1.526-48.49,19.72-21.841,30.4C3.592,47.19,41.17,34.715,45.7,34.655v1.916l7.338-6.593L45.7,26.921Z" transform="translate(-7.153 -12.742)" fill="#fff"/>
  </g>
</svg>
